<svg xmlns="http://www.w3.org/2000/svg" xmlns:xlink="http://www.w3.org/1999/xlink" width="375" height="375" viewBox="0 0 375 375"><defs><clipPath id="b"><rect width="375" height="375"/></clipPath></defs><g id="a" clip-path="url(#b)"><rect width="375" height="375" fill="#fff"/><rect width="375" height="375" fill="#f2ede9"/><rect width="275" height="226" rx="4" transform="translate(50 86)" fill="#1d1e22"/><g transform="translate(138.358 245.829)"><g transform="translate(0 0)"><path d="M10.468,0h0A58.854,58.854,0,0,0,5.89,4.313a32.728,32.728,0,0,0-3.271,4.01A17.448,17.448,0,0,0,.655,12.032,9.9,9.9,0,0,0,0,15.44a11.343,11.343,0,0,0,.863,4.425,10.17,10.17,0,0,0,2.31,3.383,10.278,10.278,0,0,0,3.341,2.161,10.664,10.664,0,0,0,7.908,0,10.278,10.278,0,0,0,3.341-2.161,10.168,10.168,0,0,0,2.31-3.383,11.342,11.342,0,0,0,.863-4.425,9.9,9.9,0,0,0-.655-3.408,17.45,17.45,0,0,0-1.964-3.709,32.71,32.71,0,0,0-3.272-4.01A58.819,58.819,0,0,0,10.468,0Zm0,23.552A7.809,7.809,0,0,1,2.617,15.44a10.141,10.141,0,0,1,1.938-5.312,36.011,36.011,0,0,1,5.912-6.647,36.011,36.011,0,0,1,5.913,6.647,10.141,10.141,0,0,1,1.938,5.312A7.809,7.809,0,0,1,10.468,23.552Z" transform="translate(0 0)" fill="#2bb786"/><path d="M9.792,0h0L8.407.554,6.374,1.8,1.848,8.453,0,13.416v3.628l3.233,3.972,4.48,1.94,4.85-.554,3.972-2.633,1.709-4.942L15.889,7.39,9.792,0ZM9.038,16.148a2.732,2.732,0,1,1,2.732-2.732A2.735,2.735,0,0,1,9.038,16.148Z" transform="translate(1.345 2.079)" fill="#2bb786"/></g><g transform="translate(38.63 0)"><path d="M10.468,0h0A58.854,58.854,0,0,0,5.89,4.313a32.728,32.728,0,0,0-3.271,4.01A17.448,17.448,0,0,0,.655,12.032,9.9,9.9,0,0,0,0,15.44a11.343,11.343,0,0,0,.863,4.425,10.17,10.17,0,0,0,2.31,3.383,10.278,10.278,0,0,0,3.341,2.161,10.664,10.664,0,0,0,7.908,0,10.278,10.278,0,0,0,3.341-2.161,10.168,10.168,0,0,0,2.31-3.383,11.342,11.342,0,0,0,.863-4.425,9.9,9.9,0,0,0-.655-3.408,17.45,17.45,0,0,0-1.964-3.709,32.71,32.71,0,0,0-3.272-4.01A58.819,58.819,0,0,0,10.468,0Zm0,23.552A7.809,7.809,0,0,1,2.617,15.44a10.141,10.141,0,0,1,1.938-5.312,36.011,36.011,0,0,1,5.912-6.647,36.011,36.011,0,0,1,5.913,6.647,10.141,10.141,0,0,1,1.938,5.312A7.809,7.809,0,0,1,10.468,23.552Z" transform="translate(0 0)" fill="#2bb786"/><path d="M9.792,0h0L8.407.554,6.374,1.8,1.848,8.453,0,13.416v3.628l3.233,3.972,4.48,1.94,4.85-.554,3.972-2.633,1.709-4.942L15.889,7.39,9.792,0ZM9.038,16.148a2.732,2.732,0,1,1,2.732-2.732A2.735,2.735,0,0,1,9.038,16.148Z" transform="translate(1.345 2.079)" fill="#2bb786"/></g><g transform="translate(77.261 0)"><path d="M10.468,0h0A58.854,58.854,0,0,0,5.89,4.313a32.728,32.728,0,0,0-3.271,4.01A17.448,17.448,0,0,0,.655,12.032,9.9,9.9,0,0,0,0,15.44a11.343,11.343,0,0,0,.863,4.425,10.17,10.17,0,0,0,2.31,3.383,10.278,10.278,0,0,0,3.341,2.161,10.664,10.664,0,0,0,7.908,0,10.278,10.278,0,0,0,3.341-2.161,10.168,10.168,0,0,0,2.31-3.383,11.342,11.342,0,0,0,.863-4.425,9.9,9.9,0,0,0-.655-3.408,17.45,17.45,0,0,0-1.964-3.709,32.71,32.71,0,0,0-3.272-4.01A58.819,58.819,0,0,0,10.468,0Zm0,23.552A7.809,7.809,0,0,1,2.617,15.44a10.141,10.141,0,0,1,1.938-5.312,36.011,36.011,0,0,1,5.912-6.647,36.011,36.011,0,0,1,5.913,6.647,10.141,10.141,0,0,1,1.938,5.312A7.809,7.809,0,0,1,10.468,23.552Z" transform="translate(0 0)" fill="#2bb786"/><path d="M9.792,0h0L8.407.554,6.374,1.8,1.848,8.453,0,13.416v3.628l3.233,3.972,4.48,1.94,4.85-.554,3.972-2.633,1.709-4.942L15.889,7.39,9.792,0ZM9.038,16.148a2.732,2.732,0,1,1,2.732-2.732A2.735,2.735,0,0,1,9.038,16.148Z" transform="translate(1.345 2.079)" fill="#2bb786"/></g></g><g transform="translate(0 -26)"><g transform="translate(-99 -1615)"><rect width="275" height="23" rx="4" transform="translate(149 1705)" fill="#2bb786"/><rect width="275" height="7" transform="translate(149 1723)" fill="#2bb786"/></g><g transform="translate(-315 -1615)"><circle cx="4.5" cy="4.5" r="4.5" transform="translate(375 1713)" fill="#f2ede9"/><circle cx="4.5" cy="4.5" r="4.5" transform="translate(391 1713)" fill="#f2ede9"/><circle cx="4.5" cy="4.5" r="4.5" transform="translate(407 1713)" fill="#f2ede9"/></g></g><path d="M37.8,100h-.1a37.494,37.494,0,0,1-3.111-74.874,45.821,45.821,0,0,1,86,12.695q.574-.021,1.151-.021a31.1,31.1,0,1,1,.1,62.2H37.8Z" transform="translate(111 126)" fill="#2bb786"/></g></svg>