<svg xmlns="http://www.w3.org/2000/svg" xmlns:xlink="http://www.w3.org/1999/xlink" width="375" height="375" viewBox="0 0 375 375"><defs><clipPath id="a"><rect width="272" height="272" fill="#fff"/></clipPath><clipPath id="c"><rect width="375" height="375"/></clipPath></defs><g id="b" clip-path="url(#c)"><rect width="375" height="375" fill="#fff"/><rect width="375" height="375" fill="#f2ede9"/><rect width="275" height="293" rx="4" transform="translate(100 87)" fill="#1d1e22"/><g transform="translate(-49 -1622)"><rect width="275" height="23" rx="4" transform="translate(149 1705)" fill="#2bb786"/><rect width="275" height="7" transform="translate(149 1723)" fill="#2bb786"/></g><g transform="translate(-265 -1622)"><circle cx="4.5" cy="4.5" r="4.5" transform="translate(375 1713)" fill="#fff"/><circle cx="4.5" cy="4.5" r="4.5" transform="translate(391 1713)" fill="#fff"/><circle cx="4.5" cy="4.5" r="4.5" transform="translate(407 1713)" fill="#fff"/></g><rect width="133" height="272" transform="translate(253 108)" fill="#f2ede9"/><g opacity="0.25"><rect width="103" height="15" rx="4" transform="translate(125 133)" fill="#2bb786"/><rect width="103" height="15" rx="4" transform="translate(125 193)" fill="#2bb786"/><rect width="103" height="15" rx="4" transform="translate(125 253)" fill="#2bb786"/><rect width="103" height="15" rx="4" transform="translate(125 163)" fill="#2bb786"/><rect width="103" height="15" rx="4" transform="translate(125 223)" fill="#2bb786"/><rect width="103" height="15" rx="4" transform="translate(125 283)" fill="#2bb786"/></g><rect width="52" height="15" rx="4" transform="translate(125 335)" fill="#2bb786"/><g transform="translate(253 108)" clip-path="url(#a)"><path d="M0,0H272V272H0Z" transform="translate(0.215)" fill="#f2ede9"/><path d="M4324.867,1655.974l28.735,22.988,27.5,12.726-16.01-74.712-46.387,9.852Z" transform="translate(-4330 -1635)" fill="#96c1df"/><path d="M4823.493,1720.161l60.248,34.9-20.2-91.5" transform="translate(-4832.785 -1696)" fill="none" stroke="#fff" stroke-width="10"/><path d="M4801.984,1910.422l69.375-47.869,40.238-22.2,33.994-15.262,167.194,89.494v55.5l-285.132,10.406Z" transform="translate(-4832.785 -1696)" fill="#96c1df"/><path d="M4911.6,1659.978l16.716,174.071,181.7,79.843" transform="translate(-4832.785 -1696)" fill="none" stroke="#fff" stroke-width="10"/><path d="M4816.555,1901.4l72.844-52.031,58.379-26.438" transform="translate(-4832.785 -1696)" fill="none" stroke="#fff" stroke-width="10"/><path d="M5008.979,1686.472l-70,68.45,5.349,68.043s161.008,68.728,164.477,68.728" transform="translate(-4832.785 -1696)" fill="none" stroke="#fff" stroke-width="10"/><path d="M4884.689,1756.236l5.87,89.814" transform="translate(-4832.785 -1696)" fill="none" stroke="#fff" stroke-width="10"/></g><g transform="translate(269.02 247.5)"><path d="M12.74,31.851h0A71.633,71.633,0,0,1,7.169,26.6,39.833,39.833,0,0,1,3.187,21.72,21.236,21.236,0,0,1,.8,17.207,12.056,12.056,0,0,1,0,13.059,13.805,13.805,0,0,1,1.05,7.672,12.378,12.378,0,0,1,3.862,3.555,12.51,12.51,0,0,1,7.928.925a12.98,12.98,0,0,1,9.625,0,12.51,12.51,0,0,1,4.066,2.63,12.376,12.376,0,0,1,2.812,4.117,13.8,13.8,0,0,1,1.05,5.386,12.055,12.055,0,0,1-.8,4.148,21.239,21.239,0,0,1-2.39,4.514A39.811,39.811,0,0,1,18.312,26.6,71.59,71.59,0,0,1,12.74,31.85Zm0-28.666a9.5,9.5,0,0,0-9.555,9.874,12.343,12.343,0,0,0,2.359,6.466,43.829,43.829,0,0,0,7.2,8.09,43.83,43.83,0,0,0,7.2-8.09A12.343,12.343,0,0,0,22.3,13.059,9.5,9.5,0,0,0,12.74,3.185Z" transform="translate(0 0)" fill="#2bb786"/><path d="M11.918,27.94h0l-1.686-.674L7.758,25.748l-5.509-8.1L0,11.611V7.2L3.935,2.361,9.388,0l5.9.675,4.835,3.2,2.08,6.015-2.867,9.051L11.918,27.94ZM11,8.287a3.325,3.325,0,1,0,3.325,3.325A3.328,3.328,0,0,0,11,8.287Z" transform="translate(1.638 1.38)" fill="#2bb786"/></g><g transform="translate(326.5 133)"><path d="M12.74,31.851h0A71.633,71.633,0,0,1,7.169,26.6,39.833,39.833,0,0,1,3.187,21.72,21.236,21.236,0,0,1,.8,17.207,12.056,12.056,0,0,1,0,13.059,13.805,13.805,0,0,1,1.05,7.672,12.378,12.378,0,0,1,3.862,3.555,12.51,12.51,0,0,1,7.928.925a12.98,12.98,0,0,1,9.625,0,12.51,12.51,0,0,1,4.066,2.63,12.376,12.376,0,0,1,2.812,4.117,13.8,13.8,0,0,1,1.05,5.386,12.055,12.055,0,0,1-.8,4.148,21.239,21.239,0,0,1-2.39,4.514A39.811,39.811,0,0,1,18.312,26.6,71.59,71.59,0,0,1,12.74,31.85Zm0-28.666a9.5,9.5,0,0,0-9.555,9.874,12.343,12.343,0,0,0,2.359,6.466,43.829,43.829,0,0,0,7.2,8.09,43.83,43.83,0,0,0,7.2-8.09A12.343,12.343,0,0,0,22.3,13.059,9.5,9.5,0,0,0,12.74,3.185Z" transform="translate(0 0)" fill="#2bb786"/><path d="M11.918,27.94h0l-1.686-.674L7.758,25.748l-5.509-8.1L0,11.611V7.2L3.935,2.361,9.388,0l5.9.675,4.835,3.2,2.08,6.015-2.867,9.051L11.918,27.94ZM11,8.287a3.325,3.325,0,1,0,3.325,3.325A3.328,3.328,0,0,0,11,8.287Z" transform="translate(1.638 1.38)" fill="#2bb786"/></g></g></svg>