<svg xmlns="http://www.w3.org/2000/svg" xmlns:xlink="http://www.w3.org/1999/xlink" width="1240" height="600" viewBox="0 0 1240 600"><defs><linearGradient id="a" x1="0.5" x2="0.5" y2="1" gradientUnits="objectBoundingBox"><stop offset="0" stop-color="#eee5df"/><stop offset="1" stop-color="#eee5df" stop-opacity="0"/></linearGradient><clipPath id="c"><rect width="1240" height="600"/></clipPath></defs><g id="b" clip-path="url(#c)"><rect width="1240" height="600" fill="#fff"/><rect width="1272" height="683" transform="translate(-26 -66)" fill="#eee5df"/><path d="M6321.928,6666.578l-1240.9-182.94,4.52-12.738L6379.38,6654.355v15.972Z" transform="translate(-5119.201 -6112.411)" fill="#fff"/><path d="M5117.993,6664.245,6372.243,6500.7v-8.534L5080.337,6651.9v10.95Z" transform="translate(-5119.218 -6111.87)" fill="#fff"/><path d="M6067.826,6534.392l275.538,28.322v-9.375l-255.549-24.652Z" transform="translate(-5094.104 -6110.941)" fill="#fff"/><path d="M6238.171,6510.007l-532.531-41.574L5550.155,6478.6l-16.847-1.849,180.909-14.637,561.067,43.562Z" transform="translate(-5107.698 -6112.635)" fill="#fff"/><path d="M6365.271,6470.188l-1212.4-69.007,7.428-1.9,1204.972,66.891Z" transform="translate(-5117.374 -6114.232)" fill="#fff"/><path d="M5105.383,6448.158l1259.47-53.09v-2.31l-1265.465,52.352Z" transform="translate(-5117.81 -6114.398)" fill="#fff"/><path d="M6343.091,6429.433l-303.813,21.528-7.639-1.737,311.452-23.958Z" transform="translate(-5095.025 -6113.572)" fill="#fff"/><path d="M6354.273,6375.153l-1064.906,33.511-11.439-1.582Z" transform="translate(-5114.192 -6114.846)" fill="#fff"/><g transform="translate(336.665 179.427)"><path d="M5667.608,6226.556s-15.673-.051-21.318,2.589-27.929,14.14-30.38,46.986,20.179,59.912,26.613,68.934a123.8,123.8,0,0,0,13.366,15.671l10.091,3.891-2.438-62.167-14.534-6.169-2.718-25.931,16.625-5.75Z" transform="translate(-5615.726 -6226.434)" fill="#1a7958"/><path d="M44.044,138.192h0c-.125-.162-12.66-16.388-24.458-32.761A126.827,126.827,0,0,1,4.146,76.074,63.36,63.36,0,0,1,3.521,32.7a54.943,54.943,0,0,1,9.6-17.021A45.145,45.145,0,0,1,27.365,4.208a38.247,38.247,0,0,1,34.882,0A45.145,45.145,0,0,1,76.489,15.684a54.943,54.943,0,0,1,9.6,17.021,62.3,62.3,0,0,1,3.521,20.843,61.9,61.9,0,0,1-4.174,22.6h.008s-.037.079-.05.107a57.036,57.036,0,0,1-4.036,8.266c-3.228,6.419-8.154,15.8-13.29,24.049a168.911,168.911,0,0,1-15.4,20.243c-4.793,5.5-8.593,9.341-8.631,9.38Zm-.8-97.646c-5.9,0-10.7,7.474-10.7,16.66s4.8,16.659,10.7,16.659,10.7-7.473,10.7-16.659S49.146,40.545,43.246,40.545Z" transform="translate(6.333 0)" fill="#2bb786"/><path d="M6.777,36.031A10.9,10.9,0,0,1,0,33.559a7.041,7.041,0,0,0,2.814.595c2.8,0,5.43-1.7,7.395-4.787a22.148,22.148,0,0,0,3.063-11.751A23.137,23.137,0,0,0,10.284,5.8c-1.928-3.187-4.5-5-7.241-5.091A10.251,10.251,0,0,1,6.777,0c3.578,0,6.943,1.874,9.473,5.277a21.414,21.414,0,0,1,3.924,12.739A21.414,21.414,0,0,1,16.25,30.755C13.72,34.158,10.356,36.031,6.777,36.031Z" transform="translate(46.911 39.808)" fill="#1a7958"/></g><g transform="translate(239.549 241.34)"><path d="M5636.961,6226.444s-5.817-.241-8.211.877-11.906,6.246-12.945,20.172,8.556,25.4,11.284,29.229a81.879,81.879,0,0,0,5.716,7.063l3.581,1.3-.384-26.424-6.163-2.616-1.152-10.995,7.049-2.438Z" transform="translate(-5615.726 -6226.422)" fill="#1a7958"/><path d="M17.978,58.615h0c-.047-.069-4.795-6.934-9.766-13.911A53.985,53.985,0,0,1,1.736,32.251a27.151,27.151,0,0,1-.26-18.384A23.368,23.368,0,0,1,5.5,6.65a18.968,18.968,0,0,1,5.971-4.866,15.876,15.876,0,0,1,14.624,0A18.968,18.968,0,0,1,32.069,6.65,23.368,23.368,0,0,1,36.1,13.867,26.683,26.683,0,0,1,37.571,22.7a26.511,26.511,0,0,1-1.75,9.582h0l-.009.019-.013.026a24.19,24.19,0,0,1-1.695,3.51c-1.353,2.721-3.418,6.7-5.569,10.192C24.816,52.08,18.046,58.55,17.978,58.615Zm.154-41.424c-2.474,0-4.486,3.327-4.486,7.415s2.012,7.415,4.486,7.415,4.486-3.326,4.486-7.415S20.6,17.192,18.131,17.192Z" transform="translate(2.685 0)" fill="#2bb786"/><path d="M5.329,15.278a3.806,3.806,0,0,1-.958-.123A4.757,4.757,0,0,0,7.2,12.733,9.958,9.958,0,0,0,8.435,7.821C8.435,3.839,6.323.346,3.916.346c-.065,0-.13,0-.194.008A3.873,3.873,0,0,1,5.329,0c2.939,0,5.329,3.427,5.329,7.639S8.267,15.278,5.329,15.278ZM0,7.605H0c0-.3.014-.6.039-.9C.019,7,.006,7.3,0,7.605Z" transform="translate(16.836 16.879)" fill="#1a7958"/></g><g transform="translate(1153.041 180.692)"><path d="M5647.512,6226.428s-7.025-.385-10.871,1.58-19.121,10.961-20.791,35.407,13.743,44.587,18.125,51.3a141.981,141.981,0,0,0,9.18,12.4l5.75,2.274-.617-46.38-9.9-4.591-1.851-19.3,11.321-4.281Z" transform="translate(-5615.724 -6226.397)" fill="#1a7958"/><path d="M28.873,102.861h0A259.068,259.068,0,0,1,12.01,78.475,103.121,103.121,0,0,1,2.541,56.621,54.939,54.939,0,0,1,0,39.857C0,29.21,2.858,19.2,8.047,11.674A29.452,29.452,0,0,1,16.78,3.132a19.822,19.822,0,0,1,21.388,0A29.452,29.452,0,0,1,46.9,11.674c5.189,7.528,8.047,17.537,8.047,28.183a54.9,54.9,0,0,1-2.559,16.82s0,.023-.027.084a46.719,46.719,0,0,1-2.473,6.147c-1.981,4.782-5,11.769-8.149,17.9-5.44,10.6-12.793,21.936-12.866,22.049Zm-1.7-72.682c-3.979,0-7.215,5.269-7.215,11.745S23.193,53.67,27.172,53.67s7.215-5.269,7.215-11.746S31.15,30.179,27.172,30.179Z" transform="translate(4.313 0.027)" fill="#2bb786"/><path d="M9.162,24.869a7.511,7.511,0,0,1-4.993-2.007,4.475,4.475,0,0,0,2.634.9c1.817,0,3.525-1.207,4.81-3.4A16.482,16.482,0,0,0,13.6,12.158a16.485,16.485,0,0,0-1.992-8.206C10.328,1.76,8.619.553,6.8.553c-.132,0-.265.006-.4.019A6.98,6.98,0,0,1,9.162,0a7.1,7.1,0,0,1,3.566.977,9.559,9.559,0,0,1,2.912,2.665A13.314,13.314,0,0,1,17.6,7.594a16.628,16.628,0,0,1,0,9.68,13.31,13.31,0,0,1-1.963,3.952,9.557,9.557,0,0,1-2.912,2.665A7.1,7.1,0,0,1,9.162,24.869ZM.363,15.91A16.635,16.635,0,0,1,0,12.434c0-.044,0-.088,0-.132A19.121,19.121,0,0,0,.363,15.91Z" transform="translate(24.248 29.832)" fill="#1a7958"/></g><g transform="translate(804.423 199.098)"><path d="M5638.487,6226.419s-5.031-.275-7.785,1.131-13.693,7.85-14.888,25.354,9.841,31.929,12.979,36.738a101.666,101.666,0,0,0,6.573,8.877l4.117,1.628-.441-33.212-7.088-3.287-1.326-13.82,8.107-3.063Z" transform="translate(-5615.724 -6226.397)" fill="#1a7958"/><path d="M20.675,73.656h0c-.071-.09-1.767-2.237-4.062-5.4-1.369-1.889-2.683-3.768-3.9-5.587C11.183,60.395,9.8,58.217,8.6,56.194a67.183,67.183,0,0,1-4.356-8.836C3.1,44.55,2.292,42.1,1.82,40.545A37.828,37.828,0,0,1,.472,34.782,41.189,41.189,0,0,1,0,28.54,39.675,39.675,0,0,1,1.546,17.431,34.194,34.194,0,0,1,3.36,12.583a29.117,29.117,0,0,1,2.4-4.224A23.771,23.771,0,0,1,8.674,4.874a18.986,18.986,0,0,1,3.342-2.631A15.529,15.529,0,0,1,15.709.58a13.846,13.846,0,0,1,7.93,0,15.53,15.53,0,0,1,3.693,1.663,18.986,18.986,0,0,1,3.342,2.631,23.767,23.767,0,0,1,2.912,3.485,29.1,29.1,0,0,1,2.4,4.224A34.175,34.175,0,0,1,37.8,17.431,39.67,39.67,0,0,1,39.347,28.54a41.2,41.2,0,0,1-.475,6.264,37.8,37.8,0,0,1-1.357,5.781h0l-.023.06a33.436,33.436,0,0,1-1.77,4.4c-1.418,3.422-3.581,8.423-5.836,12.819-2.046,3.988-4.442,8.069-6.092,10.79-1.746,2.879-3.065,4.913-3.121,5h0ZM18.988,21.611c-1.255,0-2.435.924-3.322,2.6A13.71,13.71,0,0,0,14.29,30.49a13.708,13.708,0,0,0,1.376,6.278c.887,1.677,2.067,2.6,3.322,2.6s2.435-.924,3.322-2.6a13.708,13.708,0,0,0,1.376-6.278,13.709,13.709,0,0,0-1.376-6.279C21.423,22.534,20.243,21.611,18.988,21.611Z" transform="translate(3.089 0.02)" fill="#2bb786"/><path d="M6.561,17.808a5.378,5.378,0,0,1-3.576-1.437,3.2,3.2,0,0,0,1.886.646,4.192,4.192,0,0,0,3.444-2.434A11.8,11.8,0,0,0,9.742,8.706,11.8,11.8,0,0,0,8.315,2.83,4.191,4.191,0,0,0,4.871.4c-.094,0-.19,0-.283.014A5,5,0,0,1,6.561,0,5.081,5.081,0,0,1,9.115.7,6.845,6.845,0,0,1,11.2,2.608a9.534,9.534,0,0,1,1.406,2.83,11.907,11.907,0,0,1,0,6.932A9.531,9.531,0,0,1,11.2,15.2a6.843,6.843,0,0,1-2.086,1.908A5.081,5.081,0,0,1,6.561,17.808ZM.26,11.393A11.912,11.912,0,0,1,0,8.9c0-.032,0-.063,0-.095a13.692,13.692,0,0,0,.26,2.584Z" transform="translate(17.363 21.363)" fill="#1a7958"/></g><rect width="1240" height="600" opacity="0.55" fill="url(#a)"/><g transform="translate(510.123 107.768)"><path d="M5734.957,6226.5s-26.349-1.324-40.771,5.419-71.727,37.622-77.988,121.524,51.547,153.039,67.983,176.086a493.9,493.9,0,0,0,34.432,42.551l21.572,7.808-2.316-159.19-37.125-15.758-6.944-66.237,42.466-14.69Z" transform="translate(-5615.725 -6226.397)" fill="#1a7958"/><path d="M108.3,353h0c-.372-.431-9.254-10.718-21.279-25.9-7.172-9.053-14.053-18.061-20.451-26.774-7.991-10.885-15.232-21.32-21.523-31.016a311.611,311.611,0,0,1-22.816-42.344c-6.015-13.458-10.225-25.187-12.7-32.657a168.436,168.436,0,0,1-7.06-27.618A180.947,180.947,0,0,1,0,136.781,175.1,175.1,0,0,1,8.1,83.54a155.338,155.338,0,0,1,9.5-23.234A136.941,136.941,0,0,1,30.184,40.063a117,117,0,0,1,15.252-16.7A98.7,98.7,0,0,1,62.941,10.749a85.271,85.271,0,0,1,19.344-7.97,79.008,79.008,0,0,1,41.539,0,85.284,85.284,0,0,1,19.344,7.97,98.717,98.717,0,0,1,17.5,12.611,117.012,117.012,0,0,1,15.252,16.7A137,137,0,0,1,188.51,60.306a155.289,155.289,0,0,1,9.5,23.234,175.081,175.081,0,0,1,8.1,53.241,181.008,181.008,0,0,1-2.49,30.021,168.278,168.278,0,0,1-7.109,27.7h.019l-.12.285a152.6,152.6,0,0,1-9.273,21.1c-7.425,16.4-18.757,40.369-30.571,61.437-10.716,19.111-23.269,38.67-31.912,51.712-9.144,13.8-16.057,23.547-16.347,23.956l0,.007ZM99.465,103.569c-6.574,0-12.754,4.427-17.4,12.464s-7.208,18.724-7.208,30.091,2.56,22.054,7.208,30.09,10.828,12.464,17.4,12.464,12.754-4.427,17.4-12.464,7.208-18.724,7.208-30.09-2.56-22.054-7.208-30.091S106.04,103.569,99.465,103.569Z" transform="translate(16.177 0.104)" fill="#2bb786"/><path d="M34,92a27.918,27.918,0,0,1-18.53-7.425,16.64,16.64,0,0,0,9.773,3.335c6.742,0,13.081-4.465,17.849-12.574s7.394-18.89,7.394-30.357S47.86,22.729,43.093,14.62,31.986,2.045,25.244,2.045c-.489,0-.983.024-1.467.072A25.965,25.965,0,0,1,34,0,26.4,26.4,0,0,1,47.235,3.615a35.435,35.435,0,0,1,10.808,9.858,49.193,49.193,0,0,1,7.286,14.622,61.331,61.331,0,0,1,0,35.811,49.182,49.182,0,0,1-7.286,14.622,35.437,35.437,0,0,1-10.808,9.859A26.4,26.4,0,0,1,34,92ZM1.347,58.859A61.355,61.355,0,0,1,0,46c0-.163,0-.326,0-.488A70.523,70.523,0,0,0,1.349,58.859Z" transform="translate(90.877 101.231)" fill="#1a7958"/></g><g transform="translate(35.498 156.244)"><path d="M5702.046,6226.7s-25.513-1.106-34.955,3.308-46.958,24.63-51.056,79.558,34.868,101.108,45.818,114.729,29.628,28.261,29.628,28.261l14.123,5.111-9.914-104.072-24.3-10.316-4.546-43.364,27.8-9.616Z" transform="translate(-5615.734 -6226.46)" fill="#1a7958"/><path d="M79.99,231.1h0c-.275-.282-6.835-7.017-15.717-16.953-5.3-5.927-10.379-11.824-15.1-17.528-5.9-7.126-11.25-13.957-15.9-20.305a197.811,197.811,0,0,1-16.852-27.722,216.562,216.562,0,0,1-9.379-21.379,100.242,100.242,0,0,1-5.214-18.08A105.321,105.321,0,0,1,0,89.546,102.714,102.714,0,0,1,5.981,54.691,95.5,95.5,0,0,1,13,39.48a88.706,88.706,0,0,1,9.294-13.253A80.945,80.945,0,0,1,33.558,15.293,73.387,73.387,0,0,1,46.487,7.037,67.72,67.72,0,0,1,60.775,1.819a65.59,65.59,0,0,1,30.68,0,67.726,67.726,0,0,1,14.287,5.218,73.393,73.393,0,0,1,12.929,8.256,80.919,80.919,0,0,1,11.265,10.935A88.69,88.69,0,0,1,139.23,39.48a95.461,95.461,0,0,1,7.017,15.21,102.7,102.7,0,0,1,5.982,34.855A105.4,105.4,0,0,1,150.39,109.2a100.182,100.182,0,0,1-5.251,18.137h.014l-.089.187a94.562,94.562,0,0,1-6.849,13.811c-5.484,10.736-13.853,26.428-22.579,40.221-7.914,12.511-17.186,25.316-23.569,33.854-6.753,9.033-11.859,15.416-12.074,15.683l0,0ZM73.463,67.8c-4.856,0-9.42,2.9-12.853,8.16s-5.323,12.258-5.323,19.7,1.89,14.438,5.323,19.7,8,8.16,12.853,8.16,9.42-2.9,12.853-8.16,5.324-12.258,5.324-19.7-1.891-14.438-5.324-19.7S78.319,67.8,73.463,67.8Z" transform="translate(10.582 0)" fill="#2bb786"/><path d="M9.751,60.5A17.16,17.16,0,0,1,0,57.387a11.243,11.243,0,0,0,3.048.424c4.646,0,9.013-2.883,12.3-8.119s5.094-12.2,5.094-19.6-1.809-14.366-5.094-19.6S7.693,2.37,3.048,2.37A11.181,11.181,0,0,0,.8,2.6,17,17,0,0,1,9.751,0a16.927,16.927,0,0,1,8.581,2.377A23.089,23.089,0,0,1,25.341,8.86C29.505,14.574,31.8,22.17,31.8,30.25s-2.293,15.676-6.458,21.39a23.089,23.089,0,0,1-7.008,6.483A16.927,16.927,0,0,1,9.751,60.5Z" transform="translate(80.972 65.641)" fill="#1a7958"/></g><g transform="translate(944.836 156.244)"><path d="M5678.044,6226.452s-13.771-.692-21.31,2.833-37.49,19.664-40.763,63.518,26.942,79.989,35.533,92.036a258.146,258.146,0,0,0,18,22.24l8.113,3.275,1.951-82.4-15.541,1.809-7.492-44.666,22.2-7.678Z" transform="translate(-5615.725 -6226.397)" fill="#1a7958"/><path d="M53.478,184.5h0c-.184-.225-4.57-5.6-10.507-13.535-3.542-4.732-6.939-9.44-10.1-13.994-3.946-5.689-7.522-11.143-10.628-16.211A166.172,166.172,0,0,1,10.977,118.63c-2.97-7.034-5.049-13.165-6.27-17.069A92.249,92.249,0,0,1,1.221,87.127,99.988,99.988,0,0,1,0,71.492,96.461,96.461,0,0,1,4,43.664,83.971,83.971,0,0,1,8.69,31.52,72.363,72.363,0,0,1,14.9,20.94a60.042,60.042,0,0,1,7.531-8.73,48.91,48.91,0,0,1,8.644-6.591,40.819,40.819,0,0,1,9.552-4.166,36.931,36.931,0,0,1,20.511,0,40.823,40.823,0,0,1,9.552,4.166,48.911,48.911,0,0,1,8.644,6.591,60.032,60.032,0,0,1,7.531,8.73A72.329,72.329,0,0,1,93.083,31.52a83.924,83.924,0,0,1,4.691,12.144,96.451,96.451,0,0,1,4,27.828,100.005,100.005,0,0,1-1.229,15.691,92.178,92.178,0,0,1-3.51,14.48h.009l-.059.149A82.24,82.24,0,0,1,92.4,112.839c-3.667,8.571-9.262,21.1-15.1,32.112-5.291,9.989-11.49,20.211-15.758,27.028-4.515,7.211-7.929,12.307-8.072,12.521l0,0ZM49.114,54.133c-3.246,0-6.3,2.313-8.593,6.515a33.444,33.444,0,0,0-3.559,15.728A33.44,33.44,0,0,0,40.521,92.1c2.3,4.2,5.347,6.515,8.593,6.515s6.3-2.314,8.593-6.515a33.44,33.44,0,0,0,3.559-15.727,33.442,33.442,0,0,0-3.559-15.728C55.412,56.447,52.36,54.133,49.114,54.133Z" transform="translate(8.455 0.054)" fill="#2bb786"/><path d="M17.5,46a13.731,13.731,0,0,1-5.562-1.186,7.71,7.71,0,0,0,1.055.073c3.47,0,6.733-2.332,9.187-6.567a32.138,32.138,0,0,0,3.805-15.854A33.277,33.277,0,0,0,22.77,7.7C20.716,3.655,17.895,1.015,14.824.267A13.567,13.567,0,0,1,17.5,0c4.674,0,9.069,2.392,12.374,6.737A26.91,26.91,0,0,1,35,23a26.91,26.91,0,0,1-5.126,16.263C26.569,43.608,22.174,46,17.5,46ZM.264,27A30.362,30.362,0,0,1,0,23c0-.084,0-.166,0-.25A38.474,38.474,0,0,0,.266,27Z" transform="translate(44.165 53.756)" fill="#1a7958"/></g></g></svg>