<svg xmlns="http://www.w3.org/2000/svg" xmlns:xlink="http://www.w3.org/1999/xlink" width="375" height="375" viewBox="0 0 375 375"><defs><clipPath id="b"><rect width="375" height="375"/></clipPath></defs><g id="a" clip-path="url(#b)"><rect width="375" height="375" fill="#fff"/><rect width="375" height="375" fill="#f2ede9"/><g transform="translate(-99 -1518)"><rect width="275" height="170" rx="4" transform="translate(149 1723)" fill="#1d1e22"/><rect width="275" height="16" transform="translate(149 1877)" fill="#1d1e22"/></g><g transform="translate(0 105)"><g transform="translate(-99 -1615)"><rect width="275" height="23" rx="4" transform="translate(149 1705)" fill="#2bb786"/><rect width="275" height="7" transform="translate(149 1723)" fill="#2bb786"/></g><g transform="translate(-315 -1615)"><circle cx="4.5" cy="4.5" r="4.5" transform="translate(375 1713)" fill="#f2ede9"/><circle cx="4.5" cy="4.5" r="4.5" transform="translate(391 1713)" fill="#f2ede9"/><circle cx="4.5" cy="4.5" r="4.5" transform="translate(407 1713)" fill="#f2ede9"/></g></g><rect width="50" height="15" rx="4" transform="translate(75 245)" fill="#2bb786" opacity="0.15"/><rect width="113" height="15" rx="4" transform="translate(75 275)" fill="#2bb786" opacity="0.15"/><g transform="translate(100 74.344)"><g transform="translate(0 0)"><path d="M32.125,80.313h0A180.626,180.626,0,0,1,18.076,67.076,100.442,100.442,0,0,1,8.037,54.768,53.547,53.547,0,0,1,2.01,43.387,30.4,30.4,0,0,1,0,32.928,34.81,34.81,0,0,1,2.648,19.346,31.213,31.213,0,0,1,9.738,8.965,31.544,31.544,0,0,1,19.991,2.333a32.728,32.728,0,0,1,24.27,0A31.543,31.543,0,0,1,54.513,8.965,31.207,31.207,0,0,1,61.6,19.346a34.81,34.81,0,0,1,2.648,13.582,30.4,30.4,0,0,1-2.01,10.459,53.555,53.555,0,0,1-6.026,11.381,100.387,100.387,0,0,1-10.04,12.307A180.517,180.517,0,0,1,32.126,80.313Zm0-72.282c-13.736,0-24.094,10.7-24.094,24.9,0,4.741,2,10.227,5.948,16.3,4.051,6.237,10.156,13.1,18.145,20.4,7.989-7.3,14.095-14.162,18.146-20.4,3.947-6.077,5.948-11.562,5.948-16.3C56.219,18.734,45.861,8.031,32.125,8.031Z" transform="translate(0 0)" fill="#8dd1b7"/><path d="M30.052,70.453h0l-4.252-1.7-6.238-3.827L5.67,44.511,0,29.279V18.144L9.922,5.954,23.673,0,38.558,1.7l12.191,8.08L55.994,24.95l-7.23,22.823L30.053,70.453ZM27.738,20.9a8.383,8.383,0,1,0,8.383,8.383A8.393,8.393,0,0,0,27.738,20.9Z" transform="translate(4.129 3.48)" fill="#8dd1b7"/></g></g><g transform="translate(210.749 74.344)"><g transform="translate(0 0)"><path d="M32.125,80.313h0A180.626,180.626,0,0,1,18.076,67.076,100.442,100.442,0,0,1,8.037,54.768,53.547,53.547,0,0,1,2.01,43.387,30.4,30.4,0,0,1,0,32.928,34.81,34.81,0,0,1,2.648,19.346,31.213,31.213,0,0,1,9.738,8.965,31.544,31.544,0,0,1,19.991,2.333a32.728,32.728,0,0,1,24.27,0A31.543,31.543,0,0,1,54.513,8.965,31.207,31.207,0,0,1,61.6,19.346a34.81,34.81,0,0,1,2.648,13.582,30.4,30.4,0,0,1-2.01,10.459,53.555,53.555,0,0,1-6.026,11.381,100.387,100.387,0,0,1-10.04,12.307A180.517,180.517,0,0,1,32.126,80.313Zm0-72.282c-13.736,0-24.094,10.7-24.094,24.9,0,4.741,2,10.227,5.948,16.3,4.051,6.237,10.156,13.1,18.145,20.4,7.989-7.3,14.095-14.162,18.146-20.4,3.947-6.077,5.948-11.562,5.948-16.3C56.219,18.734,45.861,8.031,32.125,8.031Z" transform="translate(0 0)" fill="#8dd1b7"/><path d="M30.052,70.453h0l-4.252-1.7-6.238-3.827L5.67,44.511,0,29.279V18.144L9.922,5.954,23.673,0,38.558,1.7l12.191,8.08L55.994,24.95l-7.23,22.823L30.053,70.453ZM27.738,20.9a8.383,8.383,0,1,0,8.383,8.383A8.393,8.393,0,0,0,27.738,20.9Z" transform="translate(4.129 3.48)" fill="#8dd1b7"/></g></g><g transform="translate(143.188 59.501)"><g transform="translate(0 0)"><path d="M44,110h0A247.392,247.392,0,0,1,24.758,91.869,137.567,137.567,0,0,1,11.007,75.013,73.339,73.339,0,0,1,2.752,59.424,41.635,41.635,0,0,1,0,45.1,47.677,47.677,0,0,1,3.626,26.5a42.75,42.75,0,0,1,9.712-14.219A43.2,43.2,0,0,1,27.38,3.2a44.826,44.826,0,0,1,33.24,0,43.2,43.2,0,0,1,14.042,9.083A42.742,42.742,0,0,1,84.373,26.5,47.677,47.677,0,0,1,88,45.1a41.634,41.634,0,0,1-2.752,14.325,73.35,73.35,0,0,1-8.254,15.588A137.491,137.491,0,0,1,63.241,91.869,247.242,247.242,0,0,1,44,110Zm0-99C25.187,11,11,25.659,11,45.1c0,6.494,2.741,14.007,8.147,22.33C24.7,75.971,33.057,85.372,44,95.368c10.942-10,19.3-19.4,24.853-27.939C74.259,59.106,77,51.593,77,45.1,77,25.659,62.813,11,44,11Z" fill="#2bb786"/><path d="M41.161,96.495h0l-5.823-2.329-8.544-5.241L7.766,60.964,0,40.1V24.851l13.59-16.7L32.423,0,52.81,2.33,69.506,13.4l7.185,20.775-9.9,31.259L41.161,96.494Zm-3.17-67.876A11.482,11.482,0,1,0,49.473,40.1,11.5,11.5,0,0,0,37.991,28.619Z" transform="translate(5.655 4.767)" fill="#2bb786"/></g></g><path d="M4,0H146a4,4,0,0,1,4,4v7a4,4,0,0,1-4,4H4a4,4,0,0,1-4-4V4A4,4,0,0,1,4,0Z" transform="translate(75 305)" fill="#2bb786" opacity="0.15"/><rect width="89" height="15" rx="4" transform="translate(75 335)" fill="#2bb786" opacity="0.15"/><rect width="121" height="15" rx="4" transform="translate(179 335)" fill="#2bb786" opacity="0.15"/><rect width="41" height="15" rx="4" transform="translate(259 245)" fill="#2bb786" opacity="0.15"/><rect width="41" height="15" rx="4" transform="translate(203 275)" fill="#2bb786" opacity="0.15"/><rect width="104" height="15" rx="4" transform="translate(140 245)" fill="#2bb786" opacity="0.15"/></g></svg>