<svg xmlns="http://www.w3.org/2000/svg" width="95.999" height="25.458" viewBox="0 0 95.999 25.458"><g transform="translate(-35 -49.271)"><g transform="translate(35 49.271)"><path d="M0,0H25.457V25.457H0Z" fill="none"/><path d="M12.486,12.607a2.121,2.121,0,1,1,2.121-2.121A2.128,2.128,0,0,1,12.486,12.607ZM18.85,10.7a6.368,6.368,0,1,0-12.729,0c0,2.482,2.068,5.77,6.364,9.7C16.782,16.468,18.85,13.18,18.85,10.7ZM12.486,2a8.438,8.438,0,0,1,8.486,8.7q0,5.282-8.486,12.517Q4.005,15.975,4,10.7A8.438,8.438,0,0,1,12.486,2Z" transform="translate(0.243 0.121)" fill="#1d1e22"/></g><path d="M3.708-2.231h7.705V0H1.206V-12.6H11.233v2.232H3.708v2.88h6.5v2.2h-6.5ZM25.149-6.677a3.308,3.308,0,0,1,1.5,1.071,3.175,3.175,0,0,1,.621,2.061A3.192,3.192,0,0,1,26.139-.925,4.844,4.844,0,0,1,22.989,0H16.166V-12.6h6.769a4.251,4.251,0,0,1,2.889.864,2.918,2.918,0,0,1,.981,2.3A2.754,2.754,0,0,1,25.149-6.8Zm-6.481-3.871v3.06h3.979A1.577,1.577,0,0,0,23.826-7.9a1.552,1.552,0,0,0,.405-1.134,1.467,1.467,0,0,0-.423-1.1,1.539,1.539,0,0,0-1.125-.414Zm4.213,8.5A1.76,1.76,0,0,0,24.2-2.51a1.661,1.661,0,0,0,.45-1.215,1.725,1.725,0,0,0-.468-1.233,1.7,1.7,0,0,0-1.3-.5H18.668v3.4ZM34.619-12.6V0H32.044V-12.6ZM48.823,0,43.872-5.309h-1.3V0H40V-12.6h2.574v4.987h1.3L48.282-12.6h3.06L46.014-6.623V-6.5L51.973,0Zm9.829-2.232h7.705V0H56.15V-12.6H66.177v2.232H58.652v2.88h6.5v2.2h-6.5Z" transform="translate(64.642 68.302)" fill="#1d1e22"/></g></svg>