<svg xmlns="http://www.w3.org/2000/svg" width="18" height="18" viewBox="0 0 18 18"><rect width="18" height="18" fill="none"/><g transform="translate(1.498 0.75)"><path d="M6.364,12.25h5.385V11.5a3,3,0,0,1,3-3H15.3L13.879,2.17A1.507,1.507,0,0,0,12.417,1H9.5V2.5h2.918l1.05,4.688h-.007a4.506,4.506,0,0,0-3.143,3.563H6.364a2.25,2.25,0,1,0,0,1.5Zm-2.115,0A.75.75,0,1,1,5,11.5.752.752,0,0,1,4.249,12.25Z" transform="translate(-1.998 -1)"/><path d="M18.25,12a2.25,2.25,0,1,0,2.25,2.25A2.247,2.247,0,0,0,18.25,12Zm0,3a.75.75,0,1,1,.75-.75A.752.752,0,0,1,18.25,15Z" transform="translate(-5.498 -3.75)"/><path d="M10,19.5H7l4.5,2.25v-1.5h3L10,18Z" transform="translate(-3.248 -5.25)"/></g></svg>