<svg xmlns="http://www.w3.org/2000/svg" width="20" height="20" viewBox="0 0 20 20"><g transform="translate(-0.182)"><rect width="20" height="20" transform="translate(0.182)" fill="none"/><g transform="translate(1.698 0.85)"><path d="M6.946,13.749h6.1V12.9a3.4,3.4,0,0,1,3.4-3.4h.629L15.463,2.326A1.708,1.708,0,0,0,13.806,1H10.5V2.7h3.306L15,8.012h-.009a5.107,5.107,0,0,0-3.561,4.037H6.946a2.55,2.55,0,1,0,0,1.7Zm-2.4,0a.85.85,0,1,1,.85-.85A.852.852,0,0,1,4.55,13.749Z" transform="translate(-1.998 -1)" fill="#fff"/><path d="M18.55,12a2.55,2.55,0,1,0,2.55,2.55A2.546,2.546,0,0,0,18.55,12Zm0,3.4a.85.85,0,1,1,.85-.85A.852.852,0,0,1,18.55,15.4Z" transform="translate(-4.099 -2.65)" fill="#fff"/><path d="M10.4,19.7H7l5.1,2.55v-1.7h3.4L10.4,18Z" transform="translate(-2.748 -3.551)" fill="#fff"/></g></g></svg>